<?xml version="1.0" encoding="UTF-8" standalone="no"?>
<!-- Created with Inkscape (http://www.inkscape.org/) -->

<svg
   xmlns:dc="http://purl.org/dc/elements/1.1/"
   xmlns:cc="http://creativecommons.org/ns#"
   xmlns:rdf="http://www.w3.org/1999/02/22-rdf-syntax-ns#"
   xmlns:svg="http://www.w3.org/2000/svg"
   xmlns="http://www.w3.org/2000/svg"
   xmlns:sodipodi="http://sodipodi.sourceforge.net/DTD/sodipodi-0.dtd"
   xmlns:inkscape="http://www.inkscape.org/namespaces/inkscape"
   width="267.74179mm"
   height="78.971237mm"
   viewBox="0 0 267.74179 78.971237"
   version="1.1"
   id="svg8"
   inkscape:version="0.92.1 r15371"
   sodipodi:docname="artica.svg">
  <defs
     id="defs2" />
  <sodipodi:namedview
     id="base"
     pagecolor="#ffffff"
     bordercolor="#666666"
     borderopacity="1.0"
     inkscape:pageopacity="0.0"
     inkscape:pageshadow="2"
     inkscape:zoom="1"
     inkscape:cx="408.82591"
     inkscape:cy="-73.457028"
     inkscape:document-units="mm"
     inkscape:current-layer="layer1"
     showgrid="false"
     fit-margin-top="0"
     fit-margin-left="0"
     fit-margin-right="0"
     fit-margin-bottom="0"
     inkscape:window-width="3000"
     inkscape:window-height="1875"
     inkscape:window-x="-13"
     inkscape:window-y="-13"
     inkscape:window-maximized="1"
     units="mm" />
  <metadata
     id="metadata5">
    <rdf:RDF>
      <cc:Work
         rdf:about="">
        <dc:format>image/svg+xml</dc:format>
        <dc:type
           rdf:resource="http://purl.org/dc/dcmitype/StillImage" />
        <dc:title></dc:title>
      </cc:Work>
    </rdf:RDF>
  </metadata>
  <g
     inkscape:label="Layer 1"
     inkscape:groupmode="layer"
     id="layer1"
     transform="translate(2.3351896,-102.54414)">
    <g
       id="surface2910"
       transform="matrix(0.35277779,0,0,0.35277779,-19.78391,36.475478)">
      <path
         id="path10"
         d="m 648.67578,338.86328 67.89844,-151.58203 91.83984,151.75 z m 0,0"
         style="fill:#0f0c0c;fill-opacity:1;fill-rule:nonzero;stroke:none"
         inkscape:connector-curvature="0" />
      <path
         id="path12"
         d="m 577.42187,339.07031 c -28.05468,-9.23437 -48.48828,-33.46875 -48.48828,-64.01172 0,-36.36718 29.53516,-65.85156 66.02735,-65.85156 21.83593,0 41.1875,10.57031 53.20703,26.86328 l -70.21485,37.875 c 0,0 65.66797,36.89063 70.3086,39.48438 -7.10156,12.04687 -24.53125,23.10547 -35.10156,25.58203 -12.94922,3.03125 -26.89454,2.96875 -35.73829,0.0586"
         style="fill:#0f0c0c;fill-opacity:1;fill-rule:nonzero;stroke:none"
         inkscape:connector-curvature="0" />
      <path
         id="path14"
         d="m 381.25,338.98437 -9.03125,-95.375 -29.83203,-4.41015 -22.08203,-40.60547 h 151.30859 l -22.08984,40.60547 -29.83594,4.41015 -8.82813,95.375 z m 0,0"
         style="fill:#0f0c0c;fill-opacity:1;fill-rule:nonzero;stroke:none"
         inkscape:connector-curvature="0" />
      <path
         id="path16"
         d="M 218.47656,338.98437 V 198.5 h 50.59375 l 0.76172,-0.0742 c 32.52734,0 58.89453,22.51563 58.89453,50.94922 0,22.61328 -16.68359,37.42187 -39.875,44.33203 l 50.3711,45.27734 z m 0,0"
         style="fill:#0f0c0c;fill-opacity:1;fill-rule:nonzero;stroke:none"
         inkscape:connector-curvature="0" />
      <path
         id="path18"
         d="m 49.460938,339.00781 90.574222,-151.72656 69.30468,151.70312 z m 0,0"
         style="fill:#0f0c0c;fill-opacity:1;fill-rule:nonzero;stroke:none"
         inkscape:connector-curvature="0" />
      <path
         id="path20"
         d="m 464.55859,338.98437 20.23828,-80.55468 h 21.33594 l 21.55078,80.55468 0.20703,0.10547 z m 0,0"
         style="fill:#0f0c0c;fill-opacity:1;fill-rule:nonzero;stroke:none"
         inkscape:connector-curvature="0" />
      <path
         id="path22"
         d="m 495.73047,196.55859 c -9.73047,0 -17.59766,7.85157 -17.59766,17.53907 0,9.69921 7.86719,17.5625 17.59766,17.5625 9.72656,0 17.59765,-7.86329 17.59765,-17.5625 0,-9.6875 -7.87109,-17.53907 -17.59765,-17.53907"
         style="fill:#0f0c0c;fill-opacity:1;fill-rule:nonzero;stroke:none"
         inkscape:connector-curvature="0" />
      <path
         id="path24"
         d="m 233.74609,393.33203 c -0.17968,6.26172 -3.62109,9.57422 -9.89453,9.57422 -7.24219,0 -10.49609,-4.14063 -10.49609,-13.45703 0,-9.31641 3.4375,-13.61328 10.79687,-13.61328 5.85157,0 9.41407,3.15625 9.59375,8.64062 h -4.70703 v -0.2539 c -0.36328,-3.41797 -1.92969,-5.07422 -5.00781,-5.07422 -4.10156,0 -5.85156,3 -5.85156,10.19922 0,7.34375 1.6289,10.29687 5.85156,10.29687 3.19922,0 5.00781,-2.28125 5.12891,-6.3125 z m 0,0"
         style="fill:#211e1e;fill-opacity:1;fill-rule:nonzero;stroke:none"
         inkscape:connector-curvature="0" />
      <path
         id="path26"
         d="m 244.73047,376.40625 v 1.60547 c 0,1.5 0,1.70703 -0.1211,2.53515 1.50782,-2.90234 4.22657,-4.60937 7.42188,-4.60937 0.54297,0 0.78516,0 1.50781,0.10547 v 3.98437 c -0.72265,-0.0508 -0.96484,-0.10156 -1.6289,-0.10156 -4.52344,0 -7.0586,2.22266 -7.0586,6.05469 v 16.35547 h -4.70312 v -25.92969 z m 0,0"
         style="fill:#211e1e;fill-opacity:1;fill-rule:nonzero;stroke:none"
         inkscape:connector-curvature="0" />
      <path
         id="path28"
         d="m 272.84766,386.59766 v -0.20313 c 0,-5.69531 -1.62891,-7.55469 -5.2461,-7.55469 -3.67969,0 -5.73437,2.6875 -5.73437,7.5 v 0.25782 z m -11.10157,3.46875 c 0,6.88671 1.69141,9.78515 5.79297,9.78515 3.13672,0 5.12891,-2.17187 5.3711,-6.0039 h 4.52343 c 0,1.34765 -0.54297,3.16015 -1.26562,4.60546 -1.57031,2.95313 -4.58594,4.45313 -8.8086,4.45313 -7.24218,0 -10.5,-4.14453 -10.5,-13.51172 0,-9.26172 3.5,-13.60937 10.74219,-13.60937 7.0586,0 10.13672,3.92968 10.13672,13.04296 v 0.92969 h -15.99219 z m 0,0"
         style="fill:#211e1e;fill-opacity:1;fill-rule:nonzero;stroke:none"
         inkscape:connector-curvature="0" />
      <path
         id="path30"
         d="m 294.875,389.75781 -2.29297,0.625 c -3.67969,0.98047 -4.82812,2.22266 -4.82812,5.07031 0,2.74219 1.50781,4.2461 4.34375,4.2461 3.98437,0 6.15625,-2.33594 6.15625,-6.52344 v -2.01953 l 0.0625,-0.77344 c 0.0586,-0.98828 0,-1.60547 0,-1.8125 0.0586,-0.15625 0.0586,-0.15625 0.0586,-0.36328 -0.66406,0.62109 -1.69141,1.08594 -3.5,1.55078 m -11.10156,-5.79687 c 0,-2.63672 0.42187,-4.03516 1.6289,-5.33203 1.6875,-1.85938 4.40625,-2.79297 8.14453,-2.79297 3.07813,0 5.67188,0.67187 7.17969,1.86328 1.62891,1.29297 2.11328,2.6914 2.11328,5.69531 v 13.35156 c 0,2.27735 0.35938,2.89844 1.7461,2.89844 0.36328,0 0.54687,-0.0508 0.96875,-0.20312 v 2.83984 c -0.96875,0.3125 -1.39063,0.36328 -2.41407,0.36328 -3.01562,0 -4.46484,-0.98047 -4.64453,-3.30859 -1.8125,2.48437 -4.22265,3.57031 -7.72265,3.57031 -5.01172,0 -7.84375,-2.58594 -7.84375,-7.25 0,-2.83984 1.14453,-5.01563 3.19531,-6.20703 1.32812,-0.77735 2.11328,-0.98438 5.85156,-1.91406 5.97656,-1.44922 6.27735,-1.70704 6.27735,-4.40235 0,-2.89844 -1.50782,-4.24219 -4.82813,-4.24219 -3.61719,0 -5.1875,1.55079 -5.1875,5.17579 v 0.20703 h -4.46484 z m 0,0"
         style="fill:#211e1e;fill-opacity:1;fill-rule:nonzero;stroke:none"
         inkscape:connector-curvature="0" />
      <path
         id="path32"
         d="m 312.375,376.40625 v -7.25 h 4.70703 v 7.19531 h 5.30859 v 3.16016 h -5.24609 v 16.41015 c 0,2.89454 0.48047,3.46485 3.25391,3.46485 0.72656,0 1.08593,-0.0508 1.99218,-0.15625 v 3.20703 c -1.32812,0.15625 -1.92968,0.20703 -3.25781,0.20703 -5.30859,0 -6.75781,-1.23828 -6.75781,-6.26172 V 379.5625 h -4.46484 v -3.15625 z m 0,0"
         style="fill:#211e1e;fill-opacity:1;fill-rule:nonzero;stroke:none"
         inkscape:connector-curvature="0" />
      <path
         id="path34"
         d="m 332.10547,402.33594 h -4.70313 v -25.92969 h 4.70313 z m 0,-29.71094 h -4.70313 v -4.76172 h 4.70313 z m 0,0"
         style="fill:#211e1e;fill-opacity:1;fill-rule:nonzero;stroke:none"
         inkscape:connector-curvature="0" />
      <path
         id="path36"
         d="m 342.78906,376.40625 4.88672,17.02734 c 0.66406,2.32813 0.90625,3.57422 1.02344,5.01953 h 0.24219 c 0.12109,-1.65625 0.42187,-3.10546 1.26953,-6.26171 l 4.16015,-15.78516 h 4.94922 l -7.90625,25.92969 h -5.42969 l -8.26562,-25.92969 z m 0,0"
         style="fill:#211e1e;fill-opacity:1;fill-rule:nonzero;stroke:none"
         inkscape:connector-curvature="0" />
      <path
         id="path38"
         d="m 379.35547,386.59766 v -0.20313 c 0,-5.69531 -1.62891,-7.55469 -5.25,-7.55469 -3.67969,0 -5.73047,2.6875 -5.73047,7.5 v 0.25782 z m -11.10156,3.46875 c 0,6.88671 1.6875,9.78515 5.78906,9.78515 3.14062,0 5.1289,-2.17187 5.37109,-6.0039 h 4.52344 c 0,1.34765 -0.54297,3.16015 -1.26563,4.60546 -1.5664,2.95313 -4.58593,4.45313 -8.80859,4.45313 -7.23828,0 -10.49609,-4.14453 -10.49609,-13.51172 0,-9.26172 3.49609,-13.60937 10.73828,-13.60937 7.05859,0 10.13281,3.92968 10.13281,13.04296 v 0.92969 h -15.98437 z m 0,0"
         style="fill:#211e1e;fill-opacity:1;fill-rule:nonzero;stroke:none"
         inkscape:connector-curvature="0" />
      <path
         id="path40"
         d="m 436.13672,393.33203 c -0.1836,6.26172 -3.61719,9.57422 -9.89844,9.57422 -7.23828,0 -10.49609,-4.14063 -10.49609,-13.45703 0,-9.31641 3.4414,-13.61328 10.80078,-13.61328 5.85156,0 9.41015,3.15625 9.59375,8.64062 h -4.70703 v -0.2539 c -0.35938,-3.41797 -1.9336,-5.07422 -5.00782,-5.07422 -4.10156,0 -5.85156,3 -5.85156,10.19922 0,7.34375 1.62891,10.29687 5.85156,10.29687 3.19532,0 5.00782,-2.28125 5.12891,-6.3125 z m 0,0"
         style="fill:#211e1e;fill-opacity:1;fill-rule:nonzero;stroke:none"
         inkscape:connector-curvature="0" />
      <path
         id="path42"
         d="m 451.82812,399.85156 c 4.16016,0 5.91016,-3.10547 5.91016,-10.60937 0,-7.50782 -1.56641,-10.35157 -5.73047,-10.35157 -4.28515,0 -6.03515,3.05469 -6.03515,10.60938 0,7.34766 1.6875,10.35156 5.85546,10.35156 m 0.30079,-24.01562 c 7.30078,0 10.4375,4.08984 10.4375,13.55859 0,9.36719 -3.32032,13.51172 -10.73829,13.51172 -7.60546,0 -10.68359,-3.88281 -10.68359,-13.51172 0,-9.31641 3.44141,-13.55859 10.98438,-13.55859"
         style="fill:#211e1e;fill-opacity:1;fill-rule:nonzero;stroke:none"
         inkscape:connector-curvature="0" />
      <path
         id="path44"
         d="m 473.55078,376.40625 v 0.72656 c 0,1.03516 -0.0625,1.75781 -0.12109,2.37891 1.75,-2.4336 4.28125,-3.67578 7.47656,-3.67578 3.5,0 5.67187,1.24218 6.75781,4.03906 1.9336,-2.79688 4.28516,-4.03906 7.60547,-4.03906 2.23047,0 4.16406,0.57031 5.42969,1.60547 1.6289,1.34765 1.99219,2.6914 1.99219,6.9375 v 17.95703 h -4.64844 v -18.01172 c 0,-4.03906 -0.90235,-5.17578 -4.04297,-5.17578 -3.73828,0 -5.73047,2.07031 -5.73047,5.84765 v 17.33985 h -4.64844 v -17.39063 l -0.0586,-0.72265 V 382.875 c 0,-2.38281 -1.50391,-3.72656 -4.03906,-3.72656 -3.80078,0 -5.67188,1.96484 -5.67188,5.90234 v 17.28516 h -4.70703 v -25.92969 z m 0,0"
         style="fill:#211e1e;fill-opacity:1;fill-rule:nonzero;stroke:none"
         inkscape:connector-curvature="0" />
      <path
         id="path46"
         d="m 516.51172,397.67969 c 0.90625,1.24218 2.41406,1.96484 4.16406,1.96484 3.98438,0 5.73438,-3.21094 5.73438,-10.60937 0,-7.08985 -1.57422,-9.88282 -5.55079,-9.88282 -2.65625,0 -4.64843,1.4961 -5.43359,4.08594 -0.42187,1.55469 -0.54297,3 -0.54297,5.74609 0,4.70704 0.42578,6.98829 1.62891,8.69532 m -1.7461,-20.03516 c 0,1.24609 0,1.55859 -0.0625,2.17578 1.02735,-2.53515 3.67969,-3.98437 7.1211,-3.98437 6.45312,0 9.41015,4.08984 9.41015,13.04297 0,5.74218 -0.90625,8.95312 -3.13671,11.33203 -1.6875,1.8164 -3.92188,2.69531 -6.51563,2.69531 -3.01562,0 -5.1875,-1.08594 -6.57812,-3.41797 0.0625,0.77734 0,0.88281 0.0625,2.27734 l 0.0586,0.9336 v 8.33203 h -4.64453 v -34.625 h 4.28515 z m 0,0"
         style="fill:#211e1e;fill-opacity:1;fill-rule:nonzero;stroke:none"
         inkscape:connector-curvature="0" />
      <path
         id="path48"
         d="m 542.27734,376.40625 v 17.80469 c 0,3.93359 1.26953,5.43359 4.46485,5.43359 3.5625,0 6.03515,-2.17578 6.03515,-5.28125 v -17.95703 h 4.70313 v 25.92969 h -4.34375 V 399.75 l 0.0625,-0.51953 c -2.05078,2.53515 -4.58594,3.67578 -7.78125,3.67578 -5.42969,0 -7.78516,-2.53516 -7.78516,-8.4375 v -18.0625 z m 0,0"
         style="fill:#211e1e;fill-opacity:1;fill-rule:nonzero;stroke:none"
         inkscape:connector-curvature="0" />
      <path
         id="path50"
         d="m 566.71875,376.40625 v -7.25 h 4.70703 v 7.19531 h 5.30859 v 3.16016 h -5.25 v 16.41015 c 0,2.89454 0.48438,3.46485 3.25782,3.46485 0.72656,0 1.08593,-0.0508 1.99218,-0.15625 v 3.20703 c -1.32812,0.15625 -1.92968,0.20703 -3.25781,0.20703 -5.30859,0 -6.75781,-1.23828 -6.75781,-6.26172 V 379.5625 h -4.46484 v -3.15625 z m 0,0"
         style="fill:#211e1e;fill-opacity:1;fill-rule:nonzero;stroke:none"
         inkscape:connector-curvature="0" />
      <path
         id="path52"
         d="m 586.44922,402.33594 h -4.70703 v -25.92969 h 4.70703 z m 0,-29.71094 h -4.70703 v -4.76172 h 4.70703 z m 0,0"
         style="fill:#211e1e;fill-opacity:1;fill-rule:nonzero;stroke:none"
         inkscape:connector-curvature="0" />
      <path
         id="path54"
         d="m 599.00391,377.23047 v 0.57422 c 0,0.77343 0,1.03515 -0.1211,1.80859 1.62891,-2.38281 4.58594,-3.83203 7.96094,-3.83203 2.53516,0 4.76953,0.88281 5.97266,2.38672 1.14843,1.44531 1.57031,2.89453 1.57031,5.79297 v 18.375 h -4.64453 v -16.30469 c 0,-5.58984 -0.90625,-6.88281 -4.58985,-6.88281 -3.61718,0 -5.84765,2.17578 -5.84765,5.74218 v 17.44532 h -4.64844 v -25.92969 h 4.34766 z m 0,0"
         style="fill:#211e1e;fill-opacity:1;fill-rule:nonzero;stroke:none"
         inkscape:connector-curvature="0" />
      <path
         id="path56"
         d="m 631.10156,398.92187 c 4.16406,0 5.97656,-3.05468 5.97656,-10.14843 0,-6.67578 -1.75,-9.625 -5.73437,-9.625 -4.10156,0 -5.79297,2.84765 -5.79297,9.9375 0,6.98437 1.62891,9.83593 5.55078,9.83593 m -5.00781,5.84766 c 0.30469,2.17188 1.93359,3.25781 4.82812,3.25781 4.04297,0 6.03125,-1.91406 6.03125,-5.79297 v -1.91406 c 0,-0.72656 0,-1.14062 0.17969,-1.76172 -2.05078,2.69141 -3.97656,3.72266 -7.11719,3.72266 -6.15234,0 -9.28906,-4.34375 -9.28906,-12.88672 0,-9.10937 3.19531,-13.55859 9.71485,-13.55859 3.13671,0 5.36718,1.24218 6.8164,3.73047 -0.125,-0.83204 -0.125,-1.29688 -0.125,-2.38672 v -0.77344 h 4.40625 v 23.1875 c 0,5.84766 -0.90234,8.07422 -3.80078,9.88672 -1.75,1.08594 -4.16016,1.65625 -6.9375,1.65625 -5.73047,0 -8.86719,-2.1211 -9.23047,-6.36719 z m 0,0"
         style="fill:#211e1e;fill-opacity:1;fill-rule:nonzero;stroke:none"
         inkscape:connector-curvature="0" />
    </g>
  </g>
</svg>
