<?xml version="1.0" encoding="UTF-8" standalone="no"?>
<!-- Generator: Adobe Illustrator 16.0.0, SVG Export Plug-In . SVG Version: 6.00 Build 0)  -->

<svg
   xmlns:dc="http://purl.org/dc/elements/1.1/"
   xmlns:cc="http://creativecommons.org/ns#"
   xmlns:rdf="http://www.w3.org/1999/02/22-rdf-syntax-ns#"
   xmlns:svg="http://www.w3.org/2000/svg"
   xmlns="http://www.w3.org/2000/svg"
   xmlns:sodipodi="http://sodipodi.sourceforge.net/DTD/sodipodi-0.dtd"
   xmlns:inkscape="http://www.inkscape.org/namespaces/inkscape"
   version="1.1"
   id="Layer_1"
   x="0px"
   y="0px"
   width="70.279999mm"
   height="20.730104mm"
   viewBox="0 0 265.6252 78.349999"
   enable-background="new 0 0 566.93 566.93"
   xml:space="preserve"
   sodipodi:docname="pca.svg"
   inkscape:version="0.92.1 r15371"><metadata
     id="metadata63"><rdf:RDF><cc:Work
         rdf:about=""><dc:format>image/svg+xml</dc:format><dc:type
           rdf:resource="http://purl.org/dc/dcmitype/StillImage" /><dc:title></dc:title><dc:title></dc:title></cc:Work></rdf:RDF></metadata><defs
     id="defs61" /><sodipodi:namedview
     pagecolor="#ffffff"
     bordercolor="#666666"
     borderopacity="1"
     objecttolerance="10"
     gridtolerance="10"
     guidetolerance="10"
     inkscape:pageopacity="0"
     inkscape:pageshadow="2"
     inkscape:window-width="3000"
     inkscape:window-height="1875"
     id="namedview59"
     showgrid="false"
     inkscape:zoom="1.1774096"
     inkscape:cx="97.883627"
     inkscape:cy="-164.34753"
     inkscape:window-x="-13"
     inkscape:window-y="-13"
     inkscape:window-maximized="1"
     inkscape:current-layer="Layer_1"
     fit-margin-top="0"
     fit-margin-left="0"
     fit-margin-right="0"
     fit-margin-bottom="0"
     units="mm" /><g
     id="g160"
     transform="translate(19.426096,-5.1663616e-6)"><g
       transform="translate(-170.079,-244.29)"
       id="g4"><path
         style="fill:#4acaa8"
         inkscape:connector-curvature="0"
         id="path2"
         d="m 201.102,244.29 c 10.695,0.178 20.725,4.428 28.307,12.006 7.749,7.75 12.014,18.053 12.014,29.013 0,9.972 -3.884,19.347 -10.932,26.4 -7.052,7.05 -16.429,10.931 -26.401,10.931 -18.754,0 -34.011,-15.256 -34.011,-34.013 0,-17.103 13.919,-31.021 31.022,-31.021 v 8.241 c -12.561,0 -22.781,10.219 -22.781,22.781 0,14.213 11.561,25.772 25.77,25.772 16.043,0 29.094,-13.05 29.094,-29.091 0,-17.841 -14.326,-32.4 -32.082,-32.775 z" /></g><g
       transform="translate(-170.079,-244.29)"
       id="g56"><path
         style="fill:#3f3f3f"
         inkscape:connector-curvature="0"
         id="path6"
         d="m 262.852,262.768 c 0,1.647 -0.559,2.913 -1.676,3.791 -1.121,0.875 -2.706,1.315 -4.756,1.315 h -2.633 v 7.038 h -1.189 v -17.038 h 4.173 c 4.053,0 6.081,1.631 6.081,4.894 z m -9.066,4.078 h 2.342 c 1.918,0 3.305,-0.316 4.161,-0.947 0.855,-0.635 1.281,-1.663 1.281,-3.084 0,-1.313 -0.404,-2.285 -1.211,-2.922 -0.809,-0.631 -2.059,-0.947 -3.753,-0.947 h -2.819 v 7.9 z" /><path
         style="fill:#3f3f3f"
         inkscape:connector-curvature="0"
         id="path8"
         d="m 266.557,274.912 v -17.038 h 1.189 v 15.919 h 8.124 v 1.119 z" /><path
         style="fill:#3f3f3f"
         inkscape:connector-curvature="0"
         id="path10"
         d="m 287.008,268.899 h -6.919 l -2.379,6.012 h -1.315 l 6.851,-17.106 h 0.759 l 6.711,17.106 h -1.34 z m -6.489,-1.075 h 6.094 l -2.318,-6.138 c -0.195,-0.484 -0.429,-1.15 -0.7,-2.006 -0.21,0.744 -0.439,1.422 -0.688,2.025 z" /><path
         style="fill:#3f3f3f"
         inkscape:connector-curvature="0"
         id="path12"
         d="m 297.567,274.912 h -1.202 v -15.918 h -5.533 v -1.119 h 12.271 v 1.119 h -5.535 v 15.918 z" /><path
         style="fill:#3f3f3f"
         inkscape:connector-curvature="0"
         id="path14"
         d="m 313.834,268.899 h -6.922 l -2.376,6.012 h -1.317 l 6.853,-17.106 h 0.757 l 6.713,17.106 h -1.34 z m -6.49,-1.075 h 6.096 l -2.32,-6.138 c -0.193,-0.484 -0.427,-1.15 -0.699,-2.006 -0.211,0.744 -0.439,1.422 -0.688,2.025 z" /><path
         style="fill:#3f3f3f"
         inkscape:connector-curvature="0"
         id="path16"
         d="m 321.14,274.912 h -1.188 v -17.038 h 9.334 v 1.097 h -8.146 v 7.225 h 7.691 v 1.103 h -7.691 z" /><path
         style="fill:#3f3f3f"
         inkscape:connector-curvature="0"
         id="path18"
         d="m 346.253,266.371 c 0,2.7 -0.675,4.841 -2.028,6.413 -1.35,1.572 -3.215,2.359 -5.591,2.359 -2.37,0 -4.231,-0.788 -5.582,-2.359 -1.353,-1.572 -2.03,-3.719 -2.03,-6.438 0,-2.712 0.684,-4.844 2.046,-6.403 1.363,-1.559 3.226,-2.337 5.589,-2.337 2.377,0 4.237,0.784 5.581,2.347 1.343,1.565 2.015,3.706 2.015,6.418 z m -13.938,0 c 0,2.438 0.546,4.325 1.632,5.656 1.089,1.331 2.649,2 4.687,2 2.05,0 3.618,-0.659 4.7,-1.984 1.084,-1.319 1.625,-3.212 1.625,-5.672 0,-2.456 -0.541,-4.337 -1.625,-5.647 -1.082,-1.309 -2.644,-1.965 -4.678,-1.965 -2.028,0 -3.591,0.662 -4.691,1.984 -1.1,1.319 -1.65,3.194 -1.65,5.628 z" /><path
         style="fill:#3f3f3f"
         inkscape:connector-curvature="0"
         id="path20"
         d="m 351.357,267.487 v 7.425 h -1.188 v -17.038 h 4.054 c 2.114,0 3.676,0.391 4.686,1.172 1.009,0.778 1.515,1.957 1.515,3.525 0,1.144 -0.301,2.103 -0.903,2.891 -0.603,0.784 -1.518,1.347 -2.743,1.69 l 4.625,7.759 h -1.422 l -4.393,-7.425 h -4.231 z m 0,-1.022 h 3.252 c 1.438,0 2.552,-0.325 3.344,-0.962 0.793,-0.644 1.189,-1.587 1.189,-2.837 0,-1.297 -0.39,-2.244 -1.167,-2.834 -0.776,-0.587 -2.042,-0.884 -3.799,-0.884 h -2.819 z" /><path
         style="fill:#3f3f3f"
         inkscape:connector-curvature="0"
         id="path22"
         d="m 371.844,274.912 -6.351,-15.731 h -0.094 c 0.063,0.962 0.094,1.95 0.094,2.959 v 12.772 h -1.143 v -17.038 h 1.842 l 6.036,14.984 h 0.07 l 6.036,-14.984 h 1.793 v 17.038 h -1.199 v -12.913 c 0,-0.9 0.047,-1.834 0.141,-2.797 h -0.094 l -6.375,15.709 h -0.756 z" /><path
         style="fill:#3f3f3f"
         inkscape:connector-curvature="0"
         id="path24"
         d="m 393.146,268.899 h -6.922 l -2.377,6.012 h -1.317 l 6.853,-17.106 h 0.757 l 6.712,17.106 h -1.341 z m -6.492,-1.075 h 6.096 l -2.319,-6.138 c -0.194,-0.484 -0.428,-1.15 -0.7,-2.006 -0.21,0.744 -0.438,1.422 -0.688,2.025 z" /><path
         style="fill:#3f3f3f"
         inkscape:connector-curvature="0"
         id="path26"
         d="m 265.532,290.096 c 0,2.856 -0.75,5.022 -2.248,6.484 -1.5,1.463 -3.703,2.197 -6.608,2.197 h -4.08 v -17.041 h 4.604 c 2.719,0 4.787,0.712 6.205,2.137 1.418,1.42 2.127,3.495 2.127,6.223 z m -1.293,0.044 c 0,-2.438 -0.62,-4.271 -1.859,-5.506 -1.238,-1.229 -3.06,-1.844 -5.458,-1.844 h -3.135 v 14.938 h 2.819 c 5.088,0 7.633,-2.529 7.633,-7.588 z" /><path
         style="fill:#3f3f3f"
         inkscape:connector-curvature="0"
         id="path28"
         d="m 278.758,298.777 h -9.31 v -17.041 h 9.31 v 1.1 h -8.121 v 6.443 h 7.668 v 1.094 h -7.668 v 7.31 h 8.121 z" /><path
         style="fill:#3f3f3f"
         inkscape:connector-curvature="0"
         id="path30"
         d="m 294.707,283.884 c -1.6,0 -2.859,0.565 -3.775,1.703 -0.918,1.134 -1.375,2.696 -1.375,4.693 0,2.091 0.441,3.672 1.323,4.744 0.88,1.071 2.156,1.609 3.827,1.609 0.723,0 1.422,-0.072 2.098,-0.219 0.676,-0.141 1.379,-0.325 2.11,-0.554 v 2.391 c -1.337,0.504 -2.853,0.757 -4.546,0.757 -2.494,0 -4.41,-0.753 -5.744,-2.266 -1.338,-1.513 -2.006,-3.672 -2.006,-6.484 0,-1.772 0.324,-3.322 0.975,-4.65 0.648,-1.328 1.586,-2.347 2.814,-3.053 1.227,-0.707 2.668,-1.06 4.322,-1.06 1.74,0 3.348,0.362 4.825,1.094 l -1.003,2.318 c -0.575,-0.271 -1.184,-0.509 -1.824,-0.715 -0.64,-0.206 -1.316,-0.308 -2.021,-0.308 z" /><path
         style="fill:#3f3f3f"
         inkscape:connector-curvature="0"
         id="path32"
         d="m 302.584,298.777 v -17.041 h 2.785 v 17.041 z" /><path
         style="fill:#3f3f3f"
         inkscape:connector-curvature="0"
         id="path34"
         d="m 319.505,298.777 h -9.637 v -17.041 h 9.637 v 2.356 h -6.853 v 4.638 h 6.422 v 2.331 h -6.422 v 5.351 h 6.853 z m -2.203,-18.4 c -0.955,-0.569 -1.84,-1.269 -2.656,-2.097 -0.8,0.797 -1.675,1.5 -2.621,2.097 h -1.843 v -0.291 c 1.484,-1.541 2.471,-2.716 2.961,-3.531 h 3.028 c 0.49,0.853 1.484,2.031 2.984,3.531 v 0.291 z" /><path
         style="fill:#3f3f3f"
         inkscape:connector-curvature="0"
         id="path36"
         d="m 337.381,298.777 h -3.414 l -8.379,-13.578 h -0.094 l 0.058,0.756 c 0.109,1.45 0.163,2.77 0.163,3.963 v 8.859 h -2.528 v -17.041 h 3.379 l 8.356,13.509 h 0.068 c -0.013,-0.178 -0.044,-0.831 -0.091,-1.953 -0.047,-1.122 -0.071,-1.997 -0.071,-2.628 v -8.928 h 2.553 z" /><path
         style="fill:#3f3f3f"
         inkscape:connector-curvature="0"
         id="path38"
         d="m 349.128,283.884 c -1.603,0 -2.859,0.565 -3.778,1.703 -0.914,1.134 -1.372,2.696 -1.372,4.693 0,2.091 0.44,3.672 1.321,4.744 0.882,1.071 2.157,1.609 3.829,1.609 0.723,0 1.422,-0.072 2.098,-0.219 0.675,-0.141 1.378,-0.325 2.109,-0.554 v 2.391 c -1.337,0.504 -2.853,0.757 -4.545,0.757 -2.493,0 -4.41,-0.753 -5.745,-2.266 -1.337,-1.513 -2.005,-3.672 -2.005,-6.484 0,-1.772 0.324,-3.322 0.974,-4.65 0.647,-1.328 1.585,-2.347 2.814,-3.053 1.225,-0.707 2.666,-1.06 4.324,-1.06 1.74,0 3.348,0.362 4.823,1.094 l -1.002,2.318 c -0.574,-0.271 -1.183,-0.509 -1.823,-0.715 -0.641,-0.206 -1.315,-0.308 -2.022,-0.308 z" /><path
         style="fill:#3f3f3f"
         inkscape:connector-curvature="0"
         id="path40"
         d="m 357.005,298.777 v -17.041 h 2.785 v 17.041 z" /><path
         style="fill:#3f3f3f"
         inkscape:connector-curvature="0"
         id="path42"
         d="m 374.857,298.777 -1.701,-4.731 h -6.514 l -1.665,4.731 h -2.938 l 6.375,-17.109 h 3.029 l 6.375,17.109 z m -2.435,-7.134 -1.596,-4.637 c -0.116,-0.31 -0.277,-0.801 -0.484,-1.466 -0.205,-0.669 -0.348,-1.159 -0.426,-1.469 -0.208,0.956 -0.516,2 -0.92,3.131 l -1.538,4.44 h 4.964 z" /><path
         style="fill:#3f3f3f"
         inkscape:connector-curvature="0"
         id="path44"
         d="m 263.003,322.64 -1.702,-4.728 h -6.514 l -1.665,4.728 h -2.938 l 6.375,-17.103 h 3.03 l 6.374,17.103 z m -2.434,-7.131 -1.597,-4.635 c -0.117,-0.313 -0.278,-0.803 -0.484,-1.469 -0.206,-0.672 -0.348,-1.159 -0.424,-1.469 -0.209,0.953 -0.517,2 -0.922,3.135 l -1.538,4.438 z" /><path
         style="fill:#3f3f3f"
         inkscape:connector-curvature="0"
         id="path46"
         d="m 268.213,305.605 h 5.057 c 2.345,0 4.042,0.341 5.086,1.025 1.044,0.684 1.566,1.766 1.566,3.24 0,0.994 -0.255,1.822 -0.767,2.481 -0.514,0.659 -1.252,1.078 -2.215,1.247 v 0.118 c 1.196,0.222 2.076,0.669 2.638,1.335 0.565,0.662 0.846,1.563 0.846,2.696 0,1.531 -0.535,2.729 -1.603,3.594 -1.068,0.869 -2.554,1.297 -4.457,1.297 h -6.152 v -17.033 z m 2.785,7.041 h 2.681 c 1.165,0 2.016,-0.185 2.552,-0.557 0.535,-0.369 0.804,-0.994 0.804,-1.881 0,-0.801 -0.29,-1.382 -0.868,-1.738 -0.578,-0.355 -1.499,-0.534 -2.757,-0.534 h -2.412 z m 0,2.259 v 5.397 h 2.96 c 1.165,0 2.045,-0.229 2.639,-0.672 0.595,-0.447 0.891,-1.153 0.891,-2.116 0,-0.884 -0.303,-1.544 -0.909,-1.972 -0.605,-0.425 -1.526,-0.638 -2.762,-0.638 h -2.819 z" /><path
         style="fill:#3f3f3f"
         inkscape:connector-curvature="0"
         id="path48"
         d="m 293.605,322.64 h -9.637 v -17.034 h 9.637 v 2.356 h -6.852 v 4.634 h 6.42 v 2.335 h -6.42 v 5.347 h 6.852 z" /><path
         style="fill:#3f3f3f"
         inkscape:connector-curvature="0"
         id="path50"
         d="m 300.072,315.837 v 6.803 h -2.786 v -17.034 h 4.813 c 2.199,0 3.826,0.409 4.883,1.237 1.055,0.822 1.585,2.065 1.585,3.726 0,2.121 -1.103,3.631 -3.309,4.534 l 4.813,7.537 H 306.9 l -4.078,-6.803 z m 0,-2.307 h 1.934 c 1.297,0 2.238,-0.24 2.82,-0.722 0.584,-0.484 0.875,-1.2 0.875,-2.146 0,-0.963 -0.316,-1.653 -0.945,-2.072 -0.627,-0.422 -1.575,-0.628 -2.844,-0.628 h -1.84 z" /><path
         style="fill:#3f3f3f"
         inkscape:connector-curvature="0"
         id="path52"
         d="m 318.427,322.64 h -2.787 v -14.644 h -5.01 v -2.391 h 12.807 v 2.391 h -5.01 z" /><path
         style="fill:#3f3f3f"
         inkscape:connector-curvature="0"
         id="path54"
         d="m 336.618,322.64 -1.703,-4.728 H 328.4 l -1.667,4.728 h -2.935 l 6.373,-17.103 h 3.031 l 6.373,17.103 z m -2.437,-7.131 -1.597,-4.635 c -0.117,-0.313 -0.277,-0.803 -0.484,-1.469 -0.204,-0.672 -0.347,-1.159 -0.425,-1.469 -0.21,0.953 -0.516,2 -0.92,3.135 l -1.538,4.438 z" /></g></g></svg>